<svg width="300" height="85" viewBox="0 0 300 85" fill="none" xmlns="http://www.w3.org/2000/svg">
<g clip-path="url(#clip0_1_197)">
<path d="M286.022 74.0142C291.907 74.0142 296.076 72.9717 299.183 70.7264V60.5425C295.995 62.7076 292.153 64.0708 286.758 64.0708C277.684 64.0708 273.924 57.1745 273.924 46.2689C273.924 34.8019 278.501 28.9481 286.839 28.9481C291.744 28.9481 296.567 30.6321 299.101 32.2359V21.6509C296.403 20.2076 291.744 19.1651 285.368 19.1651C269.101 19.1651 260.681 30.6321 260.681 46.6698C260.763 64.2311 269.019 74.0142 286.022 74.0142ZM206.485 69.3632V59.1793C202.561 61.8255 195.858 64.151 189.728 64.151C180.409 64.151 176.894 59.8208 176.322 51H207.057V44.4245C207.057 26.0613 198.801 19.1651 186.131 19.1651C170.6 19.1651 163.243 30.7925 163.243 46.75C163.243 65.1132 172.48 74.0142 188.665 74.0142C196.758 74.0142 202.725 71.8491 206.485 69.3632ZM89.8366 20.1274V40.9764H72.8338V20.1274H60.0818V72.9717H72.8338V50.9198H89.8366V72.9717H102.589V20.1274H89.8366ZM160.055 63.0283H154.414V20.1274H117.302V24.6179C117.302 37.5283 116.485 54.2076 111.989 63.0283H107.902V85H119.673V72.9717H148.202V85H159.973V63.0283H160.055ZM247.112 72.9717H261.58L241.144 44.5047L259.128 20.1274H246.294L228.311 44.5047V20.1274H215.559V72.9717H228.311V46.9906L247.112 72.9717ZM185.804 28.9481C192.098 28.9481 194.06 34.0802 194.06 40.7359V41.7783H176.322C176.649 33.3585 179.755 28.9481 185.804 28.9481ZM141.662 63.0283H123.679C127.194 55.0896 128.174 40.6557 128.174 31.5142V29.9104H141.662V63.0283Z" fill="white"/>
<path d="M49.455 72.9717H36.4578V9.86321H30.654C20.0273 9.86321 14.4687 15.0755 14.4687 22.8538C14.4687 31.6745 18.3106 35.7641 26.2398 40.9764L32.7793 45.3066L13.9782 72.9717H0L16.921 48.2736C7.19346 41.4575 1.71662 34.8019 1.71662 23.5755C1.71662 9.54245 11.6894 0 30.5722 0H49.3733V72.9717H49.455Z" fill="#FC3F1D"/>
</g>
<defs>
<clipPath id="clip0_1_197">
<rect width="300" height="85" fill="white"/>
</clipPath>
</defs>
</svg>
