<svg width="264" height="85" viewBox="0 0 264 85" fill="none" xmlns="http://www.w3.org/2000/svg">
<path d="M251.149 31.2646H263.226C261.699 19.5403 253.114 13.3777 241.181 13.3777C229.104 13.3777 221.029 19.7659 221.029 30.7385C221.029 43.2142 231.432 45.9946 236.962 47.1224C244.092 48.5502 251.076 48.7006 251.076 55.0133C251.076 59.2972 247.584 61.4015 242.637 61.4015C236.525 61.4015 232.451 58.2451 231.432 52.5336H219.501C220.228 64.8589 228.886 71.4724 241.618 71.4724C253.404 71.4724 263.081 65.9111 263.081 53.8863C263.081 40.9594 251.949 38.6298 244.164 37.4272C238.853 36.6006 233.033 35.8489 233.033 30.062C233.033 26.0037 236.016 23.5237 241.036 23.5237C246.857 23.5237 250.348 26.9058 251.149 31.2646Z" fill="white"/>
<path d="M212.88 15.2567H201.457V69.7437H212.88V15.2567Z" fill="white"/>
<path d="M166.972 50.7296H181.887C179.558 56.5921 174.32 59.3722 168.281 59.3722C157.659 59.3722 152.712 50.88 152.712 42.4626C152.712 33.97 157.368 25.3273 168.209 25.3273C174.829 25.3273 179.776 28.4838 181.668 34.1204L193.963 34.1204C191.854 21.4195 181.086 14.1295 168.354 14.1295C152.639 14.1295 140.853 25.1769 140.853 42.613C140.853 60.2743 153.657 70.7208 168.281 70.7208C182.687 70.7208 193.963 61.026 193.963 45.8447V41.4104H166.972V50.7296Z" fill="white"/>
<path d="M114.734 14.1294C101.638 14.1294 91.9618 22.6217 92.0346 36.7508H103.821C103.675 30.5882 107.458 24.9516 114.152 24.9516C119.972 24.9516 123.392 29.1603 123.392 33.97C123.392 38.7799 119.972 41.4856 113.643 44.4168C104.985 48.3999 98.8009 50.9551 92.471 53.2099V69.7438H136.56V58.6208H106.293C106.293 58.6208 106.393 58.5883 106.443 58.5728C111.591 56.9614 115.459 55.2107 120.045 53.1346C129.867 48.6255 135.469 42.9886 135.469 33.369C135.469 21.5695 127.03 14.1294 114.734 14.1294Z" fill="white"/>
<path d="M61.0411 50.5795C46.199 50.6547 43.7982 59.8986 42.998 67.7147L42.6343 71.1717H39.6511L39.2874 67.7147C38.4873 59.8986 36.0136 50.6546 21.6808 50.5795C19.28 45.4687 18.2614 41.3352 18.2614 36.6756C18.2614 25.0269 27.5013 14.1291 41.1789 14.1291C54.8568 14.1291 63.9512 24.9513 63.9512 36.7511C63.9512 41.3352 63.5147 45.4687 61.0411 50.5795ZM41.0337 0C18.4799 0 0 19.0895 0 42.4622C0 65.9109 18.4799 85 41.0337 85C63.8056 85 82.2127 65.9109 82.2127 42.4622C82.2127 19.0895 63.8056 0 41.0337 0Z" fill="#29B24A"/>
</svg>
